<?xml version="1.0" encoding="UTF-8" standalone="no"?>
<svg
   viewBox="0 0 64 64"
   version="1.1"
   id="svg334"
   sodipodi:docname="Extension.svg"
   inkscape:version="1.2.2 (b0a8486541, 2022-12-01)"
   xml:space="preserve"
   inkscape:export-filename="Extension.png"
   inkscape:export-xdpi="1500"
   inkscape:export-ydpi="1500"
   xmlns:inkscape="http://www.inkscape.org/namespaces/inkscape"
   xmlns:sodipodi="http://sodipodi.sourceforge.net/DTD/sodipodi-0.dtd"
   xmlns:xlink="http://www.w3.org/1999/xlink"
   xmlns="http://www.w3.org/2000/svg"
   xmlns:svg="http://www.w3.org/2000/svg"><defs
     id="defs338"><linearGradient
       inkscape:collect="always"
       id="linearGradient1200"><stop
         style="stop-color:#9b1526;stop-opacity:1;"
         offset="0"
         id="stop1196" /><stop
         style="stop-color:#ca1428;stop-opacity:1;"
         offset="1"
         id="stop1198" /></linearGradient><linearGradient
       inkscape:collect="always"
       xlink:href="#linearGradient1200"
       id="linearGradient1202"
       x1="0"
       y1="64"
       x2="64"
       y2="0"
       gradientUnits="userSpaceOnUse" /></defs><sodipodi:namedview
     id="namedview336"
     pagecolor="#ffffff"
     bordercolor="#666666"
     borderopacity="1.0"
     inkscape:showpageshadow="2"
     inkscape:pageopacity="0.0"
     inkscape:pagecheckerboard="0"
     inkscape:deskcolor="#d1d1d1"
     showgrid="false"
     showguides="true"
     inkscape:zoom="7.3750001"
     inkscape:cx="33.830508"
     inkscape:cy="37.423728"
     inkscape:window-width="1440"
     inkscape:window-height="831"
     inkscape:window-x="0"
     inkscape:window-y="0"
     inkscape:window-maximized="1"
     inkscape:current-layer="svg334" /><path
     fill="#FF8700"
     d="M0 0h64v64H0z"
     id="path330"
     style="fill:url(#linearGradient1202);fill-opacity:1" /><path
     id="rect355"
     style="color:#000000;fill:#ffffff;stroke-linecap:round;stroke-linejoin:round;-inkscape-stroke:none;paint-order:fill markers stroke"
     d="M 13.607422 -19.849609 C 13.607422 -14.789922 17.774297 -10.623047 22.833984 -10.623047 L 41.166016 -10.623047 C 46.225703 -10.623047 50.392578 -14.789922 50.392578 -19.849609 L 50.392578 -44.150391 C 50.392578 -49.210078 46.225703 -53.376953 41.166016 -53.376953 L 22.833984 -53.376953 C 17.774297 -53.376953 13.607422 -49.210078 13.607422 -44.150391 L 13.607422 -19.849609 z M 19.607422 -19.849609 L 19.607422 -44.150391 C 19.607422 -45.989868 20.994507 -47.376953 22.833984 -47.376953 L 41.166016 -47.376953 C 43.005493 -47.376953 44.392578 -45.989868 44.392578 -44.150391 L 44.392578 -19.849609 C 44.392578 -18.010132 43.005493 -16.623047 41.166016 -16.623047 L 22.833984 -16.623047 C 20.994507 -16.623047 19.607422 -18.010132 19.607422 -19.849609 z M 30.03125 -34.851562 A 2.0002 2.0002 0 0 0 30.591797 -33.75 L 36.865234 -27.476562 L 35.115234 -25.726562 A 2.0002 2.0002 0 0 0 35.115234 -22.898438 L 38.279297 -19.734375 A 2 2 0 0 0 41.107422 -19.734375 A 2 2 0 0 0 41.107422 -22.5625 L 39.357422 -24.3125 L 41.107422 -26.0625 A 2.0002 2.0002 0 0 0 41.107422 -28.890625 L 34.833984 -35.164062 L 41.107422 -41.4375 A 2 2 0 0 0 41.107422 -44.265625 A 2 2 0 0 0 38.279297 -44.265625 L 30.591797 -36.578125 A 2.0002 2.0002 0 0 0 30.03125 -34.851562 z "
     transform="rotate(90)" /></svg>
